<?xml version="1.0" standalone="no"?>
<!DOCTYPE svg PUBLIC "-//W3C//DTD SVG 20010904//EN"
 "http://www.w3.org/TR/2001/REC-SVG-20010904/DTD/svg10.dtd">
<svg version="1.0" xmlns="http://www.w3.org/2000/svg"
 width="2048.000000pt" height="1536.000000pt" viewBox="0 0 2048.000000 1536.000000"
 preserveAspectRatio="xMidYMid meet">

<g transform="translate(0.000000,1536.000000) scale(0.100000,-0.100000)"
fill="#000000" stroke="none">
<path d="M0 7680 l0 -7680 10240 0 10240 0 0 7245 c0 5782 -3 7244 -13 7242
-16 -3 -12 54 5 64 10 7 10 13 1 27 -7 12 -8 23 -3 28 11 11 0 154 -11 154 -5
0 -9 -22 -9 -50 0 -27 -4 -50 -9 -50 -15 0 -19 22 -14 75 4 34 2 47 -5 40 -5
-5 -13 -32 -16 -60 -8 -73 -9 -75 -18 -75 -4 0 -8 27 -8 60 0 52 -2 60 -19 60
-18 0 -35 33 -23 44 11 12 43 6 36 -6 -5 -10 -4 -10 6 -1 7 6 15 45 18 85 2
40 1 70 -3 65 -5 -4 -10 -28 -11 -54 -4 -58 -11 -76 -26 -71 -14 5 -17 41 -8
85 5 18 4 36 -1 39 -5 3 -9 -5 -10 -18 0 -13 -2 -30 -3 -38 -8 -39 -19 -130
-20 -173 -1 -26 -8 -53 -15 -60 -11 -10 -12 12 -6 123 8 154 12 197 21 212 4
6 8 38 9 72 1 33 5 97 9 141 5 55 4 75 -3 64 -6 -8 -12 -58 -15 -110 -3 -52
-8 -105 -11 -119 -3 -14 -9 -67 -12 -118 -4 -61 -11 -99 -20 -108 -8 -8 -10
-14 -5 -14 8 0 6 -91 -4 -138 -9 -45 -26 -10 -22 44 3 29 1 51 -4 48 -4 -3 -8
0 -8 6 0 6 -4 8 -10 5 -5 -3 -7 -19 -3 -35 8 -40 -6 -110 -17 -89 -14 24 0
159 16 159 7 0 16 -6 21 -12 4 -8 13 36 21 102 22 195 23 230 12 230 -7 0 -9
-8 -5 -20 4 -11 2 -35 -4 -53 -5 -17 -13 -68 -16 -112 -7 -93 -14 -125 -26
-125 -5 0 -9 35 -9 77 0 90 -5 92 -13 5 -7 -67 -13 -86 -27 -77 -10 6 -6 87 7
175 5 30 6 66 3 80 -7 28 -15 -22 -27 -160 -3 -41 -10 -78 -15 -81 -10 -7 -13
-123 -3 -139 4 -6 0 -19 -8 -28 -8 -9 -14 -32 -15 -49 -1 -54 -1 -58 -11 -47
-5 5 -5 51 0 109 6 55 12 138 15 185 2 47 9 99 14 115 11 39 17 161 7 171 -4
4 -7 1 -7 -7 -3 -63 -15 -169 -23 -189 -5 -13 -9 -56 -23 -245 -7 -86 -7 -87
-24 -55 -8 14 -8 37 -1 78 6 31 13 107 16 167 3 61 9 111 13 113 9 3 8 130 -2
139 -7 7 -7 12 -12 -101 -2 -49 -8 -94 -14 -100 -5 -7 -10 -50 -12 -96 -3 -74
-6 -85 -22 -88 -15 -3 -17 0 -11 14 5 11 10 58 11 105 1 47 6 94 12 105 6 11
9 51 8 89 -1 39 1 77 6 87 4 9 10 57 14 107 5 73 3 91 -8 91 -9 0 -13 -17 -14
-63 -2 -92 -15 -168 -28 -164 -6 2 -9 13 -8 23 2 10 5 24 5 29 1 6 6 13 10 16
5 3 2 13 -7 21 -10 10 -11 19 -5 25 6 6 12 33 14 61 3 40 0 52 -11 52 -8 0
-14 -8 -15 -17 -2 -48 -9 -162 -12 -193 -12 -126 -20 -196 -25 -204 -3 -5 -6
-30 -7 -55 -2 -65 -4 -71 -15 -71 -10 0 -8 125 3 136 12 12 8 164 -4 164 -8 0
-10 -13 -6 -38 2 -21 1 -45 -4 -54 -4 -8 -10 -55 -13 -106 -2 -50 -9 -99 -16
-109 -9 -14 -10 5 -6 82 10 166 34 429 41 448 6 13 2 17 -15 17 -11 0 -19 -4
-16 -8 3 -5 1 -51 -5 -103 -6 -52 -12 -123 -15 -159 -6 -85 -13 -157 -18 -200
-2 -19 -4 -41 -5 -48 -1 -7 -5 -10 -11 -7 -15 9 -12 60 15 285 14 113 25 213
25 222 0 16 -18 17 -222 17 -161 0 -225 -3 -230 -12 -6 -9 -8 -9 -8 1 0 9
-1950 12 -9715 12 l-9715 0 0 -7680z m19855 7639 c-5 -6 -10 -51 -12 -98 -7
-154 -9 -195 -17 -266 -18 -181 -24 -195 -31 -69 -2 49 -1 66 4 44 5 -25 8 -6
10 70 1 58 5 119 8 135 3 17 9 71 13 120 5 50 9 92 9 95 1 2 6 -1 12 -7 6 -6
8 -17 4 -24z m-528 -26 c-3 -10 -5 -2 -5 17 0 19 2 27 5 18 2 -10 2 -26 0 -35z
m243 -23 c0 -5 -4 -10 -10 -10 -5 0 -10 5 -10 10 0 6 5 10 10 10 6 0 10 -4 10
-10z m41 -87 c-7 -24 -9 -48 -6 -54 4 -5 2 -9 -4 -9 -6 0 -9 21 -8 49 1 27 5
44 9 38 4 -7 8 8 9 33 2 33 3 37 6 16 3 -16 0 -49 -6 -73z m50 13 c-5 -6 -11
-34 -12 -61 -1 -28 -8 -86 -15 -130 -6 -44 -10 -94 -7 -112 3 -17 0 -39 -6
-50 -9 -15 -10 -13 -11 17 0 64 33 340 42 340 4 0 9 19 10 43 l1 42 4 -38 c3
-21 0 -44 -6 -51z m47 34 c-5 -47 -13 -69 -22 -59 -8 9 7 109 17 109 6 0 8
-20 5 -50z m44 -23 l-10 -42 -1 60 c0 46 2 56 10 42 7 -11 7 -32 1 -60z m53
46 c-5 -30 -25 -272 -25 -304 0 -10 -4 -19 -10 -19 -12 0 -12 127 0 195 6 28
13 74 16 103 4 28 11 52 15 52 5 0 6 -12 4 -27z m-285 -48 c0 -8 -4 -15 -10
-15 -5 0 -7 7 -4 15 4 8 8 15 10 15 2 0 4 -7 4 -15z m30 -121 c-6 -71 -16
-133 -22 -139 -7 -7 -8 -4 -4 10 3 11 8 49 10 85 6 90 18 181 23 176 2 -2 -1
-62 -7 -132z m-84 79 c-11 -11 -19 6 -11 24 8 17 8 17 12 0 3 -10 2 -21 -1
-24z m-149 -35 c-3 -7 -5 -2 -5 12 0 14 2 19 5 13 2 -7 2 -19 0 -25z m190 10
c-3 -8 -6 -5 -6 6 -1 11 2 17 5 13 3 -3 4 -12 1 -19z m193 2 c0 -5 -2 -10 -4
-10 -3 0 -8 5 -11 10 -3 6 -1 10 4 10 6 0 11 -4 11 -10z m50 0 c0 -5 -4 -10
-10 -10 -5 0 -10 5 -10 10 0 6 5 10 10 10 6 0 10 -4 10 -10z m-453 -42 c-3 -8
-6 -5 -6 6 -1 11 2 17 5 13 3 -3 4 -12 1 -19z m398 -57 c-7 -42 -8 -44 -18
-23 -8 17 -8 29 1 43 7 10 13 29 13 41 1 19 2 20 6 4 3 -10 2 -39 -2 -65z
m328 67 c5 -16 -9 -137 -17 -145 -12 -12 -14 3 -9 80 5 71 14 95 26 65z m-278
-73 c-5 -45 -11 -63 -17 -54 -6 10 -8 7 -7 -11 4 -51 -1 -143 -7 -137 -8 8 -4
219 5 265 1 4 6 0 11 -8 8 -13 10 -12 10 4 0 11 3 17 6 13 3 -3 3 -35 -1 -72z
m-153 -56 c-7 -38 -12 -85 -12 -104 0 -19 -4 -35 -9 -35 -5 0 -8 17 -5 38 2
20 7 77 10 127 6 73 9 85 18 66 7 -16 6 -44 -2 -92z m-140 76 c3 -13 1 -22 -3
-19 -5 3 -6 -10 -3 -28 4 -27 3 -30 -6 -16 -6 11 -8 33 -4 53 7 42 10 43 16
10z m-93 -17 c0 -27 -2 -29 -8 -13 -5 11 -6 26 -4 33 8 21 13 13 12 -20z
m-152 0 c-3 -8 -6 -5 -6 6 -1 11 2 17 5 13 3 -3 4 -12 1 -19z m50 -25 c-3 -10
-5 -4 -5 12 0 17 2 24 5 18 2 -7 2 -21 0 -30z m-190 5 c-3 -8 -6 -5 -6 6 -1
11 2 17 5 13 3 -3 4 -12 1 -19z m242 -5 c0 -25 -1 -26 -9 -8 -12 27 -12 35 0
35 6 0 10 -12 9 -27z m101 20 c0 -5 -5 -15 -10 -23 -8 -12 -10 -11 -10 8 0 12
5 22 10 22 6 0 10 -3 10 -7z m-383 -35 c-3 -8 -6 -5 -6 6 -1 11 2 17 5 13 3
-3 4 -12 1 -19z m-5927 -19 c0 -5 -4 -9 -10 -9 -5 0 -10 7 -10 16 0 8 5 12 10
9 6 -3 10 -10 10 -16z m6347 -41 c-3 -8 -6 -5 -6 6 -1 11 2 17 5 13 3 -3 4
-12 1 -19z m-10007 -5 c396 -29 860 -94 1155 -162 246 -57 392 -94 535 -138
121 -36 301 -93 325 -102 11 -5 38 -14 60 -20 22 -7 55 -19 73 -28 18 -8 40
-12 48 -9 8 3 13 2 10 -3 -6 -10 82 -46 91 -37 3 3 11 0 17 -8 6 -7 49 -28 96
-46 94 -36 118 -46 203 -84 32 -14 61 -26 66 -26 5 0 14 -7 21 -15 7 -8 16
-13 20 -10 5 3 11 1 14 -4 3 -5 17 -12 31 -15 14 -4 54 -20 87 -36 34 -17 67
-30 75 -30 7 0 13 -5 13 -11 0 -6 7 -9 15 -5 8 3 15 2 15 -2 0 -11 80 -53 90
-47 4 3 10 -2 14 -10 3 -8 12 -15 20 -15 8 0 33 -12 56 -27 23 -16 43 -26 45
-23 2 3 12 -3 23 -13 12 -11 25 -16 30 -13 4 3 16 -4 25 -15 18 -20 43 -27 31
-7 -4 7 -3 8 5 4 6 -4 9 -11 6 -16 -3 -5 6 -12 20 -16 14 -3 25 -9 25 -13 0
-3 30 -22 68 -41 37 -19 69 -38 70 -42 2 -5 10 -8 18 -8 8 0 14 -5 14 -11 0
-6 6 -9 14 -6 8 3 17 -1 20 -10 4 -8 13 -13 21 -9 8 3 15 0 15 -7 0 -7 45 -38
100 -71 55 -32 100 -62 100 -66 0 -4 11 -11 25 -14 14 -4 25 -11 25 -17 0 -6
4 -8 9 -5 5 3 20 -5 32 -19 13 -13 30 -25 37 -25 6 0 12 -5 12 -11 0 -6 8 -8
18 -5 11 4 21 -1 27 -15 6 -12 14 -21 19 -19 5 1 13 -5 18 -13 12 -22 78 -59
79 -44 0 8 2 7 6 -2 6 -16 40 -51 49 -51 4 0 13 -8 20 -17 12 -16 15 -16 24
-3 8 12 10 11 10 -7 0 -15 6 -23 17 -23 9 0 13 -3 10 -7 -10 -9 43 -42 58 -37
7 3 15 -5 18 -17 4 -13 9 -20 13 -17 3 4 16 -3 28 -16 11 -12 49 -43 84 -70
34 -26 62 -51 62 -57 0 -5 7 -9 15 -9 8 0 15 -7 15 -15 0 -13 6 -16 26 -14 4
0 12 -10 18 -22 14 -29 33 -35 39 -12 3 12 5 8 6 -10 1 -21 8 -31 32 -41 17
-7 31 -17 32 -22 1 -5 5 -8 9 -7 5 2 7 -1 5 -6 -3 -12 44 -52 54 -45 5 3 13
-6 18 -20 6 -13 26 -37 46 -53 21 -15 88 -80 151 -143 63 -63 126 -127 142
-142 15 -16 30 -28 34 -28 4 0 15 -14 23 -30 9 -17 19 -28 24 -26 4 3 14 -7
22 -22 8 -15 32 -45 54 -68 22 -22 58 -62 80 -88 22 -26 49 -58 60 -70 80 -92
111 -131 117 -147 4 -11 12 -19 17 -19 6 0 18 -14 26 -30 9 -17 20 -28 25 -25
6 4 10 -3 10 -14 0 -12 5 -21 10 -21 15 0 12 -36 -5 -50 -8 -7 -12 -17 -8 -23
3 -5 2 -7 -4 -4 -5 3 -101 -86 -213 -199 -112 -112 -211 -204 -219 -204 -9 0
-37 26 -63 58 -26 31 -60 71 -75 88 -15 18 -48 56 -73 85 -25 29 -66 76 -92
103 -26 28 -48 54 -48 59 0 4 -7 7 -15 7 -8 0 -15 4 -15 9 0 15 -127 145 -132
135 -3 -5 -4 -4 -2 2 1 7 -23 37 -54 67 -31 30 -71 70 -88 88 -37 41 -227 218
-266 249 -15 12 -33 18 -39 14 -7 -4 -9 -3 -6 3 9 15 -155 163 -182 163 -5 0
-13 9 -16 20 -3 11 -10 20 -14 20 -4 0 -18 9 -31 20 -12 11 -27 17 -33 13 -5
-3 -7 -2 -4 4 3 5 -4 16 -15 24 -12 8 -29 21 -38 30 -9 8 -23 19 -31 22 -20
10 -50 30 -69 47 -9 8 -27 22 -40 30 -12 8 -33 23 -45 33 -13 9 -28 17 -34 17
-6 0 -15 9 -21 20 -6 11 -15 18 -19 16 -5 -3 -16 3 -26 14 -10 11 -24 20 -32
20 -7 0 -13 4 -13 10 0 5 -11 12 -25 16 -14 3 -25 10 -25 15 0 5 -7 9 -15 9
-8 0 -19 9 -25 20 -6 11 -17 20 -24 20 -8 0 -19 7 -26 15 -7 9 -19 14 -26 11
-7 -3 -15 1 -18 9 -5 13 -43 38 -78 51 -10 3 -18 10 -18 15 0 5 -5 9 -11 9 -6
0 -22 9 -36 20 -14 11 -29 18 -33 15 -4 -3 -10 2 -14 10 -3 8 -15 15 -26 15
-11 0 -20 5 -20 10 0 6 -10 15 -22 20 -13 6 -36 19 -53 29 -16 11 -38 20 -47
20 -10 1 -18 5 -18 9 0 4 -39 28 -87 52 -49 24 -95 49 -103 55 -8 7 -31 18
-50 25 -19 7 -39 18 -45 24 -5 7 -29 18 -52 25 -24 8 -43 18 -43 23 0 4 -9 8
-19 8 -11 0 -23 5 -26 10 -3 6 -15 10 -26 10 -10 0 -19 5 -19 10 0 6 -6 10
-14 10 -13 0 -88 33 -139 61 -10 5 -22 7 -27 4 -6 -4 -10 -2 -10 4 0 5 -10 13
-22 17 -13 3 -43 16 -68 26 -81 36 -104 45 -145 58 -22 6 -54 18 -72 26 -17 8
-34 14 -38 14 -4 0 -21 6 -38 14 -34 15 -176 61 -297 96 -41 11 -82 24 -90 27
-61 25 -554 143 -740 178 -911 167 -1867 160 -2780 -21 -289 -57 -722 -177
-995 -276 -126 -46 -351 -132 -410 -158 -301 -131 -477 -219 -748 -374 -276
-158 -632 -403 -873 -601 -34 -27 -93 -75 -130 -105 -160 -129 -476 -436 -624
-605 -29 -33 -65 -73 -79 -90 -133 -151 -390 -485 -512 -665 -366 -538 -657
-1154 -834 -1760 -15 -52 -31 -106 -36 -120 -30 -89 -99 -389 -133 -575 -60
-332 -106 -728 -106 -921 l0 -101 -87 -94 c-48 -52 -137 -146 -198 -209 -61
-63 -148 -155 -193 -204 -61 -66 -86 -86 -92 -76 -29 46 -33 819 -6 1140 39
462 100 808 227 1282 130 489 268 846 516 1343 41 83 79 155 83 160 8 10 29
47 80 140 135 245 403 640 648 955 225 290 727 789 1066 1061 126 101 199 158
226 177 14 9 59 41 100 72 41 30 82 60 91 65 9 6 50 33 90 61 85 58 389 248
465 290 247 137 324 178 499 263 224 110 248 121 324 151 30 11 74 30 99 41
164 75 580 218 862 297 325 91 744 174 1120 222 100 13 543 49 650 53 193 8
727 2 890 -10z m10565 -79 c-10 -71 -27 -53 -21 24 6 84 6 83 18 49 5 -16 7
-48 3 -73z m-331 49 c3 -16 2 -41 -3 -58 l-9 -30 -1 35 c-1 19 -4 45 -7 58 -4
12 -2 22 4 22 6 0 13 -12 16 -27z m96 -27 c0 -19 -4 -37 -10 -41 -5 -3 -7 -12
-3 -20 3 -8 0 -15 -7 -15 -9 0 -11 11 -6 38 3 20 6 45 6 55 0 9 5 17 10 17 6
0 10 -15 10 -34z m-330 -2 c0 -8 -4 -14 -10 -14 -5 0 -10 9 -10 21 0 11 5 17
10 14 6 -3 10 -13 10 -21z m43 12 c6 -16 -2 -28 -14 -20 -12 7 -11 34 0 34 5
0 11 -6 14 -14z m37 -50 c-7 -7 -10 4 -9 30 1 39 1 39 10 9 5 -18 5 -33 -1
-39z m-183 -13 c-2 -16 -4 -5 -4 22 0 28 2 40 4 28 2 -13 2 -35 0 -50z m53 47
c0 -11 -2 -20 -4 -20 -2 0 -6 9 -9 20 -3 11 -1 20 4 20 5 0 9 -9 9 -20z m-543
-12 c-3 -8 -6 -5 -6 6 -1 11 2 17 5 13 3 -3 4 -12 1 -19z m1002 -98 c1 -20 -1
-22 -9 -10 -5 8 -9 29 -9 45 0 26 2 27 9 10 5 -11 9 -31 9 -45z m-192 8 c-3
-7 -5 -2 -5 12 0 14 2 19 5 13 2 -7 2 -19 0 -25z m286 19 c3 -8 1 -20 -4 -28
-6 -10 -9 -7 -9 14 0 29 5 35 13 14z m40 -55 c-1 -37 -6 -92 -11 -122 -9 -52
-10 -49 -10 50 0 106 4 140 16 140 4 0 6 -30 5 -68z m199 57 c4 -13 -11 -127
-20 -149 -9 -21 -15 88 -7 128 6 32 20 43 27 21z m-382 -14 c0 -8 -4 -15 -10
-15 -5 0 -10 7 -10 15 0 8 5 15 10 15 6 0 10 -7 10 -15z m-90 -5 c0 -5 -4 -10
-10 -10 -5 0 -10 5 -10 10 0 6 5 10 10 10 6 0 10 -4 10 -10z m186 -12 c-4 -13
-9 -57 -12 -98 -3 -41 -9 -79 -13 -83 -8 -8 -6 41 5 151 3 28 10 52 16 52 6 0
8 -9 4 -22z m462 -32 c2 -10 1 -34 -3 -54 -6 -35 -7 -35 -18 -11 -15 28 -10
92 7 86 6 -2 13 -12 14 -21z m-558 -40 c0 -14 -4 -28 -10 -31 -6 -4 -10 6 -10
24 0 16 -3 38 -7 48 -6 17 -6 17 10 1 9 -9 17 -28 17 -42z m44 -11 c-9 -52
-24 -43 -24 16 0 46 2 49 15 35 12 -11 14 -25 9 -51z m188 10 c-6 -49 -27 -39
-25 11 1 21 2 41 2 43 1 2 7 -1 14 -7 8 -7 11 -25 9 -47z m-282 5 c0 -16 -4
-32 -10 -35 -6 -4 -10 10 -10 35 0 25 4 39 10 35 6 -3 10 -19 10 -35z m185 -9
c-10 -55 -20 -56 -20 -2 0 36 3 47 13 43 10 -3 12 -15 7 -41z m-236 17 c0 -13
-4 -32 -9 -43 -5 -14 -7 -8 -6 22 0 24 4 43 9 43 4 0 7 -10 6 -22z m-144 2 c3
-5 1 -10 -4 -10 -6 0 -11 5 -11 10 0 6 2 10 4 10 3 0 8 -4 11 -10z m95 -40 c0
-11 -4 -20 -9 -20 -5 0 -7 9 -4 20 3 11 7 20 9 20 2 0 4 -9 4 -20z m-90 6 c0
-3 -4 -8 -10 -11 -5 -3 -10 -1 -10 4 0 6 5 11 10 11 6 0 10 -2 10 -4z m-5233
-88 c-2 -13 -4 -3 -4 22 0 25 2 35 4 23 2 -13 2 -33 0 -45z m5685 0 c-13 -13
-24 5 -16 27 7 16 8 16 17 0 6 -11 6 -20 -1 -27z m235 5 c-16 -16 -17 -16 -17
3 0 26 11 37 24 24 7 -7 5 -16 -7 -27z m193 11 c0 -16 -16 -19 -25 -4 -8 13 4
32 16 25 5 -4 9 -13 9 -21z m-613 -21 c-3 -10 -5 -4 -5 12 0 17 2 24 5 18 2
-7 2 -21 0 -30z m238 7 c-5 -8 -11 -8 -17 -2 -6 6 -7 16 -3 22 5 8 11 8 17 2
6 -6 7 -16 3 -22z m101 -7 c-3 -3 -13 -3 -22 1 -13 5 -14 9 -3 22 11 14 13 14
22 -1 5 -9 6 -19 3 -22z m38 22 c3 -8 1 -15 -4 -15 -6 0 -10 7 -10 15 0 8 2
15 4 15 2 0 6 -7 10 -15z m101 6 c7 -12 -12 -24 -25 -16 -11 7 -4 25 10 25 5
0 11 -4 15 -9z m92 -4 c-5 -17 -77 -19 -77 -3 0 9 14 13 40 13 25 0 39 -4 37
-10z m-664 -27 c3 -11 1 -18 -4 -14 -5 3 -9 12 -9 20 0 20 7 17 13 -6z m-183
0 c0 -5 -2 -10 -4 -10 -3 0 -8 5 -11 10 -3 6 -1 10 4 10 6 0 11 -4 11 -10z
m140 0 c0 -5 -5 -10 -11 -10 -5 0 -7 5 -4 10 3 6 8 10 11 10 2 0 4 -4 4 -10z
m229 -27 c-1 -37 -1 -37 -8 -8 -7 28 -5 45 5 45 2 0 3 -17 3 -37z m524 19 c-6
-4 -13 -23 -15 -42 -2 -19 -7 -33 -13 -31 -5 1 -8 8 -6 15 2 6 3 23 2 39 -1
22 3 27 21 27 14 0 18 -3 11 -8z m-72 -75 c-8 -8 -11 -1 -11 24 0 46 14 60 18
19 2 -18 -1 -37 -7 -43z m-268 16 c-3 -18 -9 -33 -14 -33 -6 0 -6 26 0 80 1 2
5 0 10 -5 5 -6 7 -25 4 -42z m49 -15 c-2 -10 -8 -18 -13 -18 -11 0 -11 7 -2
51 6 32 7 33 13 9 4 -14 4 -33 2 -42z m95 21 c2 -21 -1 -29 -9 -27 -7 3 -13
10 -12 16 1 7 2 22 3 34 2 30 14 15 18 -23z m93 5 c0 -15 -6 -24 -16 -24 -11
0 -14 5 -10 16 3 9 6 22 6 30 0 9 5 12 10 9 6 -3 10 -17 10 -31z m-522 -38
c-13 -15 -16 -4 -10 34 l6 35 6 -30 c4 -16 3 -34 -2 -39z m195 35 c3 -11 -1
-25 -9 -32 -12 -9 -14 -5 -14 25 0 38 14 42 23 7z m47 9 c0 -11 0 -23 1 -27 0
-4 -4 -9 -10 -11 -6 -2 -11 10 -11 27 0 17 5 31 10 31 6 0 10 -9 10 -20z m232
-10 c-3 -24 -7 -28 -18 -19 -10 8 -11 15 -1 30 17 28 24 23 19 -11z m-520 -15
c-6 -35 -19 -31 -14 5 2 16 8 28 12 25 4 -2 5 -16 2 -30z m424 -11 c-4 -12
-10 -14 -17 -7 -5 5 -7 17 -3 27 4 12 10 14 17 7 5 -5 7 -17 3 -27z m-516 5
c0 -11 -4 -18 -10 -14 -5 3 -7 12 -3 20 7 21 13 19 13 -6z m290 14 c0 -5 -4
-15 -10 -23 -11 -18 -25 -7 -17 15 6 15 27 21 27 8z m-337 -28 c-3 -9 -8 -14
-10 -11 -3 3 -2 9 2 15 9 16 15 13 8 -4z m90 0 c-3 -9 -8 -14 -10 -11 -3 3 -2
9 2 15 9 16 15 13 8 -4z m192 5 c-3 -5 -10 -10 -16 -10 -5 0 -9 5 -9 10 0 6 7
10 16 10 8 0 12 -4 9 -10z m-331 -15 c-4 -8 -8 -15 -10 -15 -2 0 -4 7 -4 15 0
8 4 15 10 15 5 0 7 -7 4 -15z m872 -52 c-10 -10 -19 5 -10 18 6 11 8 11 12 0
2 -7 1 -15 -2 -18z m-90 -10 c-10 -10 -19 5 -10 18 6 11 8 11 12 0 2 -7 1 -15
-2 -18z m-374 2 c0 -5 -5 -11 -11 -13 -6 -2 -11 4 -11 13 0 9 5 15 11 13 6 -2
11 -8 11 -13z m148 5 c0 -5 -7 -10 -16 -10 -8 0 -12 5 -9 10 3 6 10 10 16 10
5 0 9 -4 9 -10z m40 -6 c0 -8 -4 -12 -10 -9 -5 3 -10 10 -10 16 0 5 5 9 10 9
6 0 10 -7 10 -16z m50 6 c0 -5 -4 -10 -10 -10 -5 0 -10 5 -10 10 0 6 5 10 10
10 6 0 10 -4 10 -10z m44 -5 c-4 -8 -7 -15 -9 -15 -2 0 -5 7 -9 15 -3 9 0 15
9 15 9 0 12 -6 9 -15z m-229 -5 c-3 -5 -11 -10 -16 -10 -6 0 -7 5 -4 10 3 6
11 10 16 10 6 0 7 -4 4 -10z m-235 -10 c0 -5 -4 -10 -9 -10 -6 0 -13 5 -16 10
-3 6 1 10 9 10 9 0 16 -4 16 -10z m412 -55 c3 -14 0 -29 -7 -35 -17 -14 -22
-5 -17 35 5 39 17 39 24 0z m238 31 c0 -3 -4 -8 -10 -11 -5 -3 -10 -1 -10 4 0
6 5 11 10 11 6 0 10 -2 10 -4z m-190 -36 c0 -16 -4 -30 -10 -30 -11 0 -14 43
-3 53 11 12 13 8 13 -23z m39 -24 c-14 -16 -22 1 -14 31 l8 28 7 -25 c4 -14 3
-29 -1 -34z m-6182 22 c-3 -8 -6 -5 -6 6 -1 11 2 17 5 13 3 -3 4 -12 1 -19z
m100 0 c-3 -8 -6 -5 -6 6 -1 11 2 17 5 13 3 -3 4 -12 1 -19z m5763 12 c0 -5
-5 -10 -11 -10 -5 0 -7 5 -4 10 3 6 8 10 11 10 2 0 4 -4 4 -10z m-191 -42 c-5
-10 -15 -18 -21 -18 -9 0 -9 3 0 12 7 7 12 21 12 33 0 16 2 17 9 6 6 -9 6 -22
0 -33z m96 32 c3 -5 1 -10 -4 -10 -6 0 -11 5 -11 10 0 6 2 10 4 10 3 0 8 -4
11 -10z m49 -6 c7 -17 0 -34 -13 -34 -5 0 -8 11 -8 25 0 28 12 33 21 9z m415
-10 c-6 -7 -15 -11 -21 -8 -5 3 -4 12 3 20 6 7 15 11 21 8 5 -3 4 -12 -3 -20z
m-229 -4 c0 -19 -11 -26 -23 -14 -8 8 3 34 14 34 5 0 9 -9 9 -20z m47 5 c0 -8
-6 -16 -14 -19 -13 -5 -18 15 -6 27 11 11 20 8 20 -8z m225 -7 c-7 -7 -12 -8
-12 -2 0 14 12 26 19 19 2 -3 -1 -11 -7 -17z m48 12 c0 -5 -4 -10 -10 -10 -5
0 -10 5 -10 10 0 6 5 10 10 10 6 0 10 -4 10 -10z m-5130 -10 c0 -5 -2 -10 -4
-10 -3 0 -8 5 -11 10 -3 6 -1 10 4 10 6 0 11 -4 11 -10z m4522 -12 c-7 -7 -12
-8 -12 -2 0 14 12 26 19 19 2 -3 -1 -11 -7 -17z m143 3 c-3 -6 -11 -8 -17 -5
-6 4 -5 9 3 15 16 10 23 4 14 -10z m46 -4 c-13 -13 -26 -3 -16 12 3 6 11 8 17
5 6 -4 6 -10 -1 -17z m-277 -2 c-4 -8 -10 -15 -15 -15 -5 0 -9 7 -9 15 0 8 7
15 15 15 9 0 12 -6 9 -15z m141 5 c3 -5 -1 -10 -10 -10 -9 0 -13 5 -10 10 3 6
8 10 10 10 2 0 7 -4 10 -10z m190 0 c-3 -5 -10 -10 -16 -10 -5 0 -9 5 -9 10 0
6 7 10 16 10 8 0 12 -4 9 -10z m-378 -16 c-3 -3 -12 -4 -19 -1 -8 3 -5 6 6 6
11 1 17 -2 13 -5z m-5820 -36 c-3 -8 -6 -5 -6 6 -1 11 2 17 5 13 3 -3 4 -12 1
-19z m140 -40 c-3 -7 -5 -2 -5 12 0 14 2 19 5 13 2 -7 2 -19 0 -25z m6233 22
c0 -5 -2 -10 -4 -10 -3 0 -8 5 -11 10 -3 6 -1 10 4 10 6 0 11 -4 11 -10z m50
0 c0 -5 -4 -10 -10 -10 -5 0 -10 5 -10 10 0 6 5 10 10 10 6 0 10 -4 10 -10z
m-330 -10 c0 -5 -4 -10 -10 -10 -5 0 -10 5 -10 10 0 6 5 10 10 10 6 0 10 -4
10 -10z m135 1 c3 -5 1 -12 -5 -16 -5 -3 -10 1 -10 9 0 18 6 21 15 7z m50 -1
c3 -5 1 -10 -4 -10 -6 0 -11 5 -11 10 0 6 2 10 4 10 3 0 8 -4 11 -10z m-5708
-52 c-3 -8 -6 -5 -6 6 -1 11 2 17 5 13 3 -3 4 -12 1 -19z m90 -30 c-3 -8 -6
-5 -6 6 -1 11 2 17 5 13 3 -3 4 -12 1 -19z m5743 2 c0 -5 -5 -10 -11 -10 -5 0
-7 5 -4 10 3 6 8 10 11 10 2 0 4 -4 4 -10z m50 1 c0 -6 -4 -13 -10 -16 -5 -3
-10 1 -10 9 0 9 5 16 10 16 6 0 10 -4 10 -9z m-190 -11 c0 -5 -5 -10 -11 -10
-5 0 -7 5 -4 10 3 6 8 10 11 10 2 0 4 -4 4 -10z m50 0 c0 -5 -4 -10 -10 -10
-5 0 -10 5 -10 10 0 6 5 10 10 10 6 0 10 -4 10 -10z m50 0 c0 -5 -4 -10 -10
-10 -5 0 -10 5 -10 10 0 6 5 10 10 10 6 0 10 -4 10 -10z m-290 -10 c0 -5 -5
-10 -11 -10 -5 0 -7 5 -4 10 3 6 8 10 11 10 2 0 4 -4 4 -10z m50 0 c0 -5 -5
-10 -11 -10 -5 0 -7 5 -4 10 3 6 8 10 11 10 2 0 4 -4 4 -10z m-333 -22 c-3 -8
-6 -5 -6 6 -1 11 2 17 5 13 3 -3 4 -12 1 -19z m-5790 -50 c-3 -7 -5 -2 -5 12
0 14 2 19 5 13 2 -7 2 -19 0 -25z m280 -30 c-2 -13 -4 -3 -4 22 0 25 2 35 4
23 2 -13 2 -33 0 -45z m5873 -82 c0 -3 -4 -8 -10 -11 -5 -3 -10 -1 -10 4 0 6
5 11 10 11 6 0 10 -2 10 -4z m-5593 -208 c-3 -7 -5 -2 -5 12 0 14 2 19 5 13 2
-7 2 -19 0 -25z m700 -200 c-3 -8 -6 -5 -6 6 -1 11 2 17 5 13 3 -3 4 -12 1
-19z m-990 -40 c-3 -8 -6 -5 -6 6 -1 11 2 17 5 13 3 -3 4 -12 1 -19z m1083
-282 c41 -3 85 -9 98 -12 15 -4 22 -2 22 7 0 11 2 11 9 0 5 -8 18 -16 28 -17
10 -2 36 -5 58 -9 22 -3 49 -7 60 -8 11 -1 22 -5 25 -8 13 -15 75 -39 78 -30
2 5 12 1 23 -10 21 -21 44 -26 34 -6 -4 6 0 3 9 -7 13 -16 18 -17 31 -6 13 11
15 10 10 -2 -7 -17 19 -43 34 -34 6 4 15 -3 21 -14 6 -11 16 -20 23 -20 7 0
28 -16 47 -35 18 -19 37 -32 42 -29 4 3 13 -7 18 -22 6 -15 13 -24 17 -20 3 3
17 -10 30 -29 13 -20 28 -33 34 -30 5 4 9 -3 9 -14 0 -11 4 -23 10 -26 5 -3
30 -44 56 -90 25 -47 49 -85 53 -85 4 0 8 -14 9 -31 1 -17 9 -43 17 -59 8 -15
19 -52 24 -81 5 -30 12 -65 16 -79 9 -30 8 -245 -1 -315 -4 -27 -8 -60 -8 -72
-1 -13 -4 -23 -7 -23 -7 0 -54 -171 -51 -182 1 -5 -2 -8 -8 -8 -5 0 -10 -4
-10 -10 0 -5 -19 -49 -42 -97 -22 -49 -40 -91 -40 -95 1 -5 -2 -8 -7 -8 -5 0
-13 -9 -16 -20 -8 -25 -129 -205 -164 -245 -15 -16 -39 -46 -53 -65 -33 -45
-219 -233 -282 -285 -26 -22 -62 -52 -79 -68 -97 -84 -406 -277 -657 -410 -41
-22 -101 -55 -133 -73 -32 -19 -60 -34 -63 -34 -5 0 -310 -184 -382 -231 l-53
-34 6 -80 c3 -44 12 -109 20 -145 7 -36 19 -94 25 -130 25 -138 42 -228 61
-315 10 -49 26 -128 34 -175 9 -47 22 -112 30 -145 33 -140 64 -293 71 -340 3
-27 9 -54 12 -60 4 -5 7 -14 8 -20 14 -80 30 -158 50 -240 14 -55 34 -143 44
-195 17 -82 85 -396 95 -440 12 -49 48 -220 51 -245 2 -16 8 -50 13 -75 5 -25
15 -76 21 -115 6 -38 15 -90 20 -115 5 -25 12 -62 15 -83 3 -22 12 -71 20
-110 9 -40 20 -97 26 -127 6 -30 14 -68 18 -85 70 -261 97 -333 163 -440 43
-69 124 -146 183 -175 74 -35 213 -40 321 -11 43 12 102 31 130 42 l52 20 37
107 c21 59 41 111 46 116 12 14 30 -5 106 -112 94 -132 120 -206 86 -245 -23
-25 -164 -117 -234 -152 -30 -15 -70 -35 -89 -45 -19 -10 -73 -31 -120 -46
-73 -25 -100 -28 -190 -28 -73 1 -127 8 -178 22 -85 24 -259 105 -329 153 -97
67 -205 184 -283 309 -19 30 -37 57 -41 60 -9 7 -158 306 -174 349 -7 20 -29
79 -48 131 -19 52 -37 102 -40 110 -6 15 -33 101 -81 260 -49 165 -141 527
-182 720 -63 298 -98 473 -119 585 -14 72 -29 146 -34 165 -5 19 -19 87 -31
150 -12 63 -28 144 -36 181 -8 36 -19 90 -24 120 -8 49 -35 177 -73 349 -9 36
-21 90 -27 120 -19 83 -26 93 -63 84 -111 -24 -291 -83 -392 -129 -16 -7 -54
-23 -83 -34 -113 -45 -507 -252 -610 -322 -24 -16 -45 -29 -48 -29 -3 0 -24
-13 -47 -28 -23 -16 -62 -42 -87 -58 -46 -30 -231 -163 -240 -173 -3 -4 -38
-33 -78 -65 -40 -32 -124 -112 -187 -178 -98 -103 -121 -132 -162 -216 -47
-94 -48 -100 -48 -187 0 -69 5 -99 20 -130 24 -51 123 -148 177 -176 38 -19
49 -21 99 -11 57 10 219 79 271 114 43 29 208 95 273 108 139 29 277 -16 425
-137 91 -75 202 -204 188 -218 -2 -2 -38 -9 -79 -15 -296 -42 -601 -248 -831
-561 -134 -183 -233 -389 -258 -540 -49 -288 120 -632 347 -708 84 -28 212
-28 313 0 83 22 210 77 210 90 0 5 5 9 11 9 38 0 233 179 245 226 9 34 -8 95
-73 264 -48 126 -56 157 -60 235 -5 78 -3 96 15 131 81 159 371 268 594 224
218 -43 394 -237 414 -457 6 -69 -10 -221 -25 -233 -4 -3 -21 -34 -39 -70 -18
-36 -86 -134 -152 -219 -137 -176 -165 -225 -157 -279 14 -110 259 -420 472
-599 201 -169 394 -279 626 -356 215 -72 364 -97 591 -98 470 -1 924 156 1176
409 83 83 121 137 155 217 85 205 46 388 -122 560 l-61 62 53 7 c28 3 113 6
187 6 l136 0 79 -52 c96 -63 221 -183 267 -258 62 -100 82 -164 83 -265 0 -49
-6 -112 -14 -140 -49 -184 -229 -394 -471 -551 -104 -68 -97 -64 -197 -116
-348 -181 -845 -290 -1248 -274 -88 4 -172 8 -187 10 -419 58 -753 192 -1048
419 -75 59 -202 160 -275 220 -90 75 -219 211 -295 312 -41 55 -79 105 -85
111 -5 6 -32 43 -60 82 -27 39 -59 75 -70 80 -13 5 -46 4 -91 -3 -234 -40
-637 -46 -809 -11 -219 45 -385 108 -523 200 -197 131 -360 368 -427 621 -38
141 -38 339 -2 500 53 231 154 423 299 573 33 33 48 56 42 62 -5 5 -52 30
-104 55 -282 138 -435 277 -516 471 -25 62 -28 81 -28 179 0 94 5 128 33 230
18 66 37 138 42 160 5 22 11 50 14 63 3 12 2 22 -3 22 -17 0 -281 -180 -445
-304 -204 -152 -203 -152 -216 -128 -20 37 -83 404 -74 428 13 35 216 161 418
259 196 96 285 135 550 239 121 48 236 94 255 101 19 8 109 42 200 75 91 34
169 65 173 69 8 8 -131 139 -193 181 -19 13 -37 27 -40 30 -3 3 -23 19 -45 35
-22 17 -42 33 -45 37 -3 3 -23 21 -45 38 -199 158 -359 359 -454 569 -95 211
-103 241 -108 406 -5 137 -3 159 20 250 63 250 204 483 392 650 37 33 74 66
81 73 7 6 15 12 18 12 3 0 32 19 63 43 71 53 146 99 193 117 19 7 40 18 45 24
6 7 37 20 70 31 33 11 65 22 70 26 6 3 35 12 65 19 30 7 60 17 67 22 7 5 17 7
23 3 6 -4 17 -1 25 5 8 7 21 10 30 7 8 -4 17 -1 21 4 3 6 15 9 25 6 11 -3 19
-2 19 1 0 6 84 14 163 15 15 0 27 4 27 9 0 5 5 6 10 3 16 -10 80 -14 80 -6 0
4 7 8 15 8 8 0 15 -3 15 -6 0 -3 16 -6 35 -7 19 0 35 4 35 9 0 5 7 4 16 -4 13
-10 17 -10 25 2 5 8 9 9 9 2 0 -9 24 -15 120 -28 8 -1 22 -5 30 -8 8 -3 42
-11 75 -17 71 -14 173 -45 232 -71 24 -11 50 -19 58 -19 8 0 15 -5 15 -11 0
-6 6 -9 13 -6 8 3 20 -3 27 -13 8 -11 17 -17 21 -14 4 2 14 -3 22 -11 9 -8 23
-15 31 -15 9 0 16 -4 16 -10 0 -5 8 -10 18 -10 9 0 23 -9 30 -20 7 -12 18 -18
24 -14 6 4 18 -2 27 -13 26 -31 108 -93 115 -86 3 4 6 1 6 -5 0 -6 19 -28 41
-49 78 -72 129 -127 213 -229 14 -18 26 -37 26 -44 0 -6 5 -8 12 -4 8 5 9 2 5
-9 -3 -10 -2 -17 3 -17 5 0 25 -33 46 -72 20 -40 39 -75 43 -78 12 -10 61
-110 61 -125 0 -8 4 -23 9 -33 18 -36 30 -69 41 -117 6 -27 15 -54 19 -60 5
-5 12 -28 16 -50 4 -22 10 -44 14 -50 4 -5 13 -30 21 -55 7 -25 21 -65 32 -89
18 -42 20 -43 55 -36 42 8 200 70 221 87 17 15 49 34 80 47 12 6 22 15 22 20
0 5 11 12 25 15 14 4 25 11 25 16 0 6 5 10 11 10 11 0 120 84 209 162 128 111
339 328 387 398 10 14 31 40 48 58 16 19 35 42 40 51 6 10 16 24 22 32 57 65
161 224 207 314 54 108 85 200 102 304 26 156 6 283 -64 413 -49 92 -192 218
-296 261 -10 4 -33 14 -50 21 -47 21 -89 35 -111 39 -11 2 -31 9 -45 14 -14 6
-60 14 -103 18 -94 8 -115 23 -91 64 19 33 65 59 114 67 72 11 186 21 205 18
11 -2 54 -6 95 -8z m-1183 -88 c-3 -8 -6 -5 -6 6 -1 11 2 17 5 13 3 -3 4 -12
1 -19z m2598 -88 c3 -5 1 -10 -4 -10 -6 0 -11 5 -11 10 0 6 2 10 4 10 3 0 8
-4 11 -10z m-736 -2382 c99 -207 151 -319 151 -328 0 -5 6 -21 14 -37 35 -68
148 -368 221 -588 125 -373 239 -862 271 -1155 2 -25 9 -67 14 -95 50 -267 84
-1110 55 -1350 -2 -22 -7 -78 -10 -125 -8 -132 -24 -291 -33 -330 -8 -35 -9
-35 -58 -33 -104 5 -499 49 -513 57 -4 3 -1 62 6 133 69 715 8 1477 -173 2173
-68 261 -177 601 -239 745 -7 17 -16 41 -20 55 -21 70 -180 427 -254 572 l-29
56 27 25 c14 13 58 46 96 73 39 26 133 93 209 148 134 95 182 126 199 126 4 0
34 -55 66 -122z m-6416 -304 c231 -60 378 -241 379 -469 1 -193 -106 -357
-292 -448 -84 -41 -86 -42 -196 -42 -73 0 -121 5 -140 14 -16 7 -49 23 -74 35
-69 33 -189 158 -230 241 -30 59 -35 82 -38 152 -7 152 68 323 183 416 131
105 265 138 408 101z m-4443 -449 c308 -48 571 -150 829 -320 562 -370 814
-949 685 -1574 -53 -256 -216 -582 -411 -820 -28 -35 -42 -60 -38 -70 4 -9 17
-47 30 -86 13 -38 74 -216 135 -395 61 -179 120 -350 130 -380 91 -276 349
-1025 414 -1205 20 -55 44 -120 53 -145 72 -206 245 -653 276 -715 58 -115
138 -207 220 -253 123 -70 215 -77 402 -32 160 38 247 14 319 -88 l30 -42 -20
-28 c-29 -38 -107 -89 -167 -108 -33 -11 -102 -18 -188 -21 -119 -5 -152 -2
-265 21 -194 39 -384 119 -504 212 -118 92 -266 259 -340 384 -122 205 -158
286 -274 610 -13 36 -35 94 -49 130 -50 131 -109 287 -143 385 -20 55 -55 152
-79 215 -45 121 -129 349 -196 535 -22 61 -48 130 -58 155 -10 25 -28 77 -41
115 -12 39 -28 84 -35 100 -12 27 -27 71 -115 320 -16 44 -33 96 -39 116 -24
77 -80 199 -107 235 -16 21 -49 50 -73 66 -115 73 -251 13 -536 -235 l-40 -35
29 -89 c17 -48 35 -101 42 -118 201 -472 286 -684 389 -958 68 -183 160 -426
205 -542 45 -115 95 -246 112 -290 17 -44 39 -100 49 -125 78 -196 154 -391
230 -595 141 -375 184 -449 302 -527 l62 -40 95 6 c52 3 124 10 159 15 121 17
213 -33 241 -133 7 -25 10 -52 7 -60 -12 -30 -150 -51 -342 -51 -157 0 -191 3
-265 23 -269 74 -489 243 -657 505 -41 64 -143 258 -143 271 0 3 -27 70 -61
148 -82 193 -113 276 -144 388 -15 52 -33 110 -41 127 -13 31 -15 32 -41 21
-172 -76 -350 -259 -468 -480 -155 -291 -184 -541 -86 -743 34 -70 58 -104
133 -183 62 -66 128 -151 128 -163 0 -14 -52 -10 -132 10 -359 92 -660 460
-685 836 -16 247 108 492 352 695 43 36 95 102 95 120 0 11 -32 28 -102 53
-336 122 -609 171 -828 149 -116 -12 -230 -41 -254 -64 -7 -7 -103 -98 -212
-203 -587 -561 -809 -838 -890 -1112 -35 -118 -37 -289 -5 -407 73 -274 291
-535 696 -836 33 -24 170 -118 305 -208 287 -193 441 -307 528 -391 53 -52 74
-81 58 -81 -2 0 -53 17 -113 39 -190 68 -334 128 -708 294 -193 86 -418 210
-575 315 -431 291 -685 616 -751 962 -16 83 -16 287 0 365 44 213 159 455 318
665 19 25 105 110 191 189 86 79 184 168 217 199 33 31 89 83 125 117 239 221
410 385 410 394 0 7 -18 19 -180 122 -233 148 -353 242 -528 414 -139 134
-206 226 -250 342 -43 110 -56 197 -49 318 10 170 52 284 149 412 122 159 290
269 498 324 114 30 343 33 470 6 261 -56 501 -207 652 -411 57 -76 129 -210
149 -278 76 -253 77 -490 4 -742 -37 -126 -79 -223 -130 -300 -25 -37 -45 -71
-45 -76 0 -20 194 -76 405 -116 366 -69 708 -83 819 -33 34 16 56 61 56 117 0
142 -64 363 -177 610 -68 148 -196 389 -213 402 -4 3 -25 31 -47 62 -57 81
-159 192 -218 237 -27 22 -86 58 -130 81 -44 24 -99 56 -123 72 -24 15 -45 28
-47 28 -2 0 -39 23 -81 50 -42 28 -80 50 -85 50 -5 0 -9 4 -9 9 0 11 100 18
430 32 146 6 269 14 273 19 5 4 -33 34 -83 66 -293 190 -458 346 -679 641
-238 319 -340 660 -291 973 87 543 593 967 1230 1030 115 12 324 5 450 -15z
m4832 -1092 c76 -27 159 -92 205 -161 64 -97 99 -195 143 -402 62 -296 89
-421 100 -465 5 -22 35 -143 66 -270 55 -229 168 -661 204 -785 119 -403 262
-844 281 -864 5 -6 9 -16 9 -24 0 -33 139 -323 191 -398 101 -148 253 -224
445 -224 115 0 210 -16 252 -42 48 -29 95 -97 81 -114 -6 -8 -60 -29 -119 -49
-272 -88 -508 -89 -724 -4 -184 73 -305 168 -477 376 -177 214 -238 367 -374
938 -14 61 -35 146 -45 190 -39 165 -69 291 -75 325 -27 139 -139 491 -189
590 -21 42 -24 45 -59 43 -91 -6 -309 -149 -486 -318 -134 -129 -207 -220
-192 -239 13 -16 78 -60 186 -126 156 -97 331 -310 425 -519 63 -140 75 -197
75 -351 -1 -123 -3 -141 -28 -205 -29 -73 -92 -172 -136 -215 -146 -141 -324
-239 -518 -286 -92 -23 -130 -27 -258 -27 -154 0 -213 9 -355 55 -152 49 -355
192 -440 311 -170 240 -195 541 -70 854 62 156 150 293 300 467 182 211 341
349 730 632 260 189 343 259 441 370 128 145 183 275 183 434 -1 128 -25 219
-94 356 -44 87 -56 119 -52 144 l5 32 156 -5 c120 -3 169 -9 213 -24z m3628
-223 c0 -5 -7 -10 -15 -10 -8 0 -15 5 -15 10 0 6 7 10 15 10 8 0 15 -4 15 -10z
m6624 -586 c23 -9 19 -27 -9 -41 -17 -8 -27 -8 -32 -1 -3 6 -1 8 4 5 12 -8 26
20 17 34 -6 11 -2 11 20 3z m-1867 -456 c-3 -8 -6 -5 -6 6 -1 11 2 17 5 13 3
-3 4 -12 1 -19z m1118 -2728 c3 -5 1 -10 -4 -10 -6 0 -11 5 -11 10 0 6 2 10 4
10 3 0 8 -4 11 -10z m-155 -110 c0 -5 -4 -10 -10 -10 -5 0 -10 5 -10 10 0 6 5
10 10 10 6 0 10 -4 10 -10z m-16300 -452 c38 -68 265 -402 356 -523 142 -189
289 -364 447 -530 142 -150 386 -386 486 -472 25 -21 81 -70 125 -109 272
-238 714 -558 1016 -736 329 -193 742 -397 1075 -530 499 -200 1122 -365 1672
-442 362 -51 515 -60 1003 -61 476 0 547 4 885 50 652 90 910 151 1510 355
443 152 927 384 1456 700 347 208 620 417 984 753 211 195 384 374 516 532
257 309 507 646 639 863 35 57 73 108 84 112 33 13 615 85 623 77 9 -9 -33
-92 -105 -212 -30 -49 -67 -110 -81 -133 -47 -79 -154 -236 -234 -344 -23 -31
-64 -88 -91 -125 -28 -37 -52 -70 -56 -73 -3 -3 -30 -39 -60 -80 -30 -41 -60
-79 -65 -85 -6 -5 -24 -28 -40 -50 -16 -22 -31 -42 -35 -45 -3 -3 -17 -21 -32
-42 -15 -20 -33 -42 -40 -50 -7 -7 -33 -38 -58 -68 -131 -161 -445 -473 -725
-721 -27 -24 -52 -46 -55 -49 -3 -3 -30 -25 -60 -50 -30 -25 -64 -53 -75 -63
-23 -21 -261 -201 -315 -237 -19 -13 -36 -28 -38 -32 -2 -4 -8 -8 -13 -8 -5 0
-37 -20 -72 -43 -34 -24 -111 -75 -172 -112 -60 -38 -112 -71 -115 -74 -3 -4
-32 -20 -65 -37 -33 -17 -125 -69 -205 -114 -80 -45 -184 -104 -231 -131 -101
-57 -370 -194 -449 -228 -118 -52 -138 -60 -230 -99 -272 -113 -754 -273
-1045 -346 -112 -28 -371 -84 -425 -92 -19 -2 -45 -7 -58 -10 -13 -2 -85 -13
-160 -24 -75 -11 -197 -29 -270 -40 -288 -43 -646 -69 -982 -69 -360 -1 -838
24 -1025 54 -16 2 -75 11 -130 20 -297 46 -597 105 -738 146 -22 6 -45 8 -52
5 -8 -3 -15 -1 -17 3 -2 4 -55 20 -118 36 -122 29 -238 64 -410 122 -58 20
-113 36 -122 35 -10 0 -18 3 -18 9 0 5 -10 9 -23 9 -13 0 -27 4 -32 9 -6 5
-48 22 -95 39 -84 30 -234 91 -320 130 -293 131 -387 176 -553 261 -107 55
-229 121 -273 146 -43 26 -104 61 -134 77 -63 35 -88 50 -345 220 -250 165
-557 397 -769 582 -489 426 -774 718 -1089 1116 -121 154 -337 460 -337 479 0
5 33 45 73 88 40 43 117 129 171 191 54 61 101 112 105 112 4 0 18 -19 31 -42z
m16930 -2228 c0 -5 -4 -10 -10 -10 -5 0 -10 5 -10 10 0 6 5 10 10 10 6 0 10
-4 10 -10z m370 -1800 c0 -17 -7 -20 -40 -20 -23 0 -40 -5 -40 -11 0 -8 17
-10 50 -7 35 4 53 1 61 -8 9 -12 1 -14 -44 -14 -50 0 -56 -2 -59 -22 -4 -33
-41 -36 -56 -4 -10 22 -8 27 9 40 13 9 16 16 10 21 -29 17 12 43 72 44 31 1
37 -2 37 -19z m-140 -124 c0 -6 -5 -18 -10 -26 -8 -13 -11 -13 -26 2 -14 14
-15 20 -5 32 13 16 41 11 41 -8z m190 15 c0 -6 -18 -9 -40 -9 -22 0 -40 4 -40
9 0 5 18 9 40 9 22 0 40 -4 40 -9z m-162 -69 c2 -7 -3 -12 -12 -12 -9 0 -16 7
-16 16 0 17 22 14 28 -4z m-72 -3 c3 -6 0 -15 -7 -20 -22 -14 -29 -11 -29 11
0 21 24 27 36 9z"/>
<path d="M12545 11786 c-84 -16 -177 -42 -225 -63 -91 -39 -198 -99 -263 -147
-411 -304 -522 -747 -300 -1191 70 -141 113 -197 270 -354 l154 -154 57 12
c83 18 93 22 87 31 -3 4 3 6 14 3 18 -5 282 80 371 119 25 11 54 24 65 28 11
4 36 15 57 24 20 9 39 16 42 16 14 0 212 93 217 102 4 6 11 8 17 4 6 -3 13 -2
16 3 3 5 45 28 93 52 156 77 293 182 293 224 0 8 4 15 8 15 12 0 32 46 32 73
0 13 5 28 12 35 8 8 13 54 15 130 2 78 -1 112 -7 102 -13 -21 -13 -3 1 22 8
15 8 19 0 14 -7 -5 -11 5 -11 28 0 58 -21 141 -31 125 -7 -9 -7 -5 -3 14 4 17
2 27 -5 27 -6 0 -11 11 -11 24 0 25 -57 149 -71 154 -5 2 -13 21 -19 43 -6 22
-15 37 -20 34 -4 -3 -14 11 -20 30 -6 19 -20 40 -31 45 -10 6 -19 19 -19 28 0
10 -22 41 -50 70 -27 29 -50 57 -50 62 0 6 -7 10 -15 10 -9 0 -19 8 -22 17 -8
21 -54 62 -70 63 -7 0 -16 6 -20 13 -4 8 -15 17 -23 21 -26 12 -57 31 -74 45
-9 7 -23 11 -31 7 -9 -3 -13 -2 -10 4 3 6 -5 10 -19 10 -14 0 -28 5 -31 10 -9
15 -37 12 -30 -2 4 -7 1 -6 -7 2 -18 20 -26 22 -153 26 -65 2 -139 -2 -180
-10z m1022 -1098 c-3 -8 -6 -5 -6 6 -1 11 2 17 5 13 3 -3 4 -12 1 -19z"/>
<path d="M4775 9433 c-228 -48 -421 -160 -626 -363 -141 -139 -182 -249 -182
-490 0 -164 24 -294 87 -485 118 -352 289 -539 478 -522 86 8 154 47 271 155
129 119 160 136 252 136 79 0 131 -19 255 -93 270 -160 360 -176 497 -92 110
69 210 269 242 488 47 316 -90 674 -361 940 -95 94 -165 145 -303 223 -55 31
-189 78 -267 94 -71 15 -290 21 -343 9z"/>
<path d="M2805 7062 c-272 -30 -483 -302 -436 -560 50 -273 286 -603 513 -718
44 -22 50 -23 76 -10 222 119 361 673 255 1011 -18 55 -63 137 -96 174 -32 34
-97 77 -137 89 -39 12 -129 19 -175 14z"/>
<path d="M8884 6700 c-124 -44 -227 -140 -313 -293 -76 -134 -121 -314 -121
-483 0 -326 128 -511 350 -508 111 2 205 57 287 167 185 253 209 649 56 926
-38 68 -170 212 -194 210 -8 0 -37 -9 -65 -19z"/>
<path d="M19952 15304 c-1 -31 -4 -83 -7 -115 -2 -33 -2 -59 0 -59 14 0 25 49
31 134 5 78 3 96 -8 96 -10 0 -14 -16 -16 -56z"/>
<path d="M20100 15350 c0 -5 5 -10 10 -10 6 0 10 5 10 10 0 6 -4 10 -10 10 -5
0 -10 -4 -10 -10z"/>
<path d="M20150 15341 c0 -11 -3 -28 -6 -38 -5 -12 -4 -15 4 -8 16 15 26 65
13 65 -6 0 -11 -9 -11 -19z"/>
<path d="M20195 15332 c-3 -16 -8 -63 -10 -106 -2 -42 -6 -85 -10 -95 -3 -11
-1 -22 4 -25 5 -4 12 20 15 56 14 168 16 198 12 198 -2 0 -7 -13 -11 -28z"/>
<path d="M20330 15333 c0 -22 2 -25 10 -13 13 20 13 40 0 40 -5 0 -10 -12 -10
-27z"/>
<path d="M20418 15310 c-12 -40 -10 -146 2 -134 6 6 10 43 8 85 -2 51 -5 66
-10 49z"/>
<path d="M20097 15313 c-12 -11 -8 -155 3 -148 8 5 12 155 5 155 -1 0 -5 -3
-8 -7z"/>
<path d="M20239 15315 c-3 -5 -5 -35 -4 -65 0 -30 -3 -58 -8 -61 -5 -4 -7 -15
-5 -25 4 -16 7 -14 17 10 11 28 12 161 0 141z"/>
<path d="M20273 15304 c-3 -8 -1 -25 5 -37 10 -20 11 -18 11 16 1 39 -5 48
-16 21z"/>
<path d="M20371 15235 c0 -48 3 -64 9 -50 12 27 12 87 0 105 -7 10 -10 -6 -9
-55z"/>
<path d="M20140 15251 c0 -16 -3 -44 -6 -62 -5 -24 -3 -31 4 -24 16 15 27 115
13 115 -6 0 -11 -13 -11 -29z"/>
<path d="M20471 15235 c0 -12 -5 -25 -11 -31 -5 -5 -6 -15 0 -24 7 -11 10 -8
15 12 4 15 5 35 2 45 -4 16 -5 15 -6 -2z"/>
<path d="M20278 15217 c-12 -29 -10 -63 3 -50 6 6 9 23 7 39 -2 24 -4 26 -10
11z"/>
<path d="M20355 15080 c-11 -78 -9 -108 7 -92 5 5 8 44 6 88 l-3 79 -10 -75z"/>
<path d="M20216 15125 c-3 -8 -1 -15 4 -15 6 0 10 7 10 15 0 8 -2 15 -4 15 -2
0 -6 -7 -10 -15z"/>
<path d="M20399 15060 c-4 -36 -5 -67 -3 -69 2 -2 10 2 19 9 12 10 16 10 19
-1 13 -41 14 -43 15 -23 1 11 4 24 8 28 9 9 10 116 1 116 -4 0 -8 -21 -10 -47
-2 -35 -7 -48 -18 -48 -11 0 -17 15 -20 50 l-5 50 -6 -65z"/>
<path d="M20216 15078 c-12 -36 -15 -98 -6 -103 5 -3 10 0 11 7 1 7 3 34 5 61
4 44 -2 63 -10 35z"/>
<path d="M20431 14910 c0 -29 1 -32 10 -17 7 11 7 23 0 35 -9 14 -10 11 -10
-18z"/>
<path d="M20420 14835 c0 -19 5 -35 10 -35 6 0 10 16 10 35 0 19 -4 35 -10 35
-5 0 -10 -16 -10 -35z"/>
<path d="M20470 14846 c0 -8 -6 -17 -12 -19 -9 -4 -10 -8 -2 -14 6 -4 14 -15
17 -23 3 -8 6 4 6 28 1 23 -1 42 -4 42 -3 0 -5 -6 -5 -14z"/>
<path d="M20401 14814 c0 -11 3 -14 6 -6 3 7 2 16 -1 19 -3 4 -6 -2 -5 -13z"/>
</g>
</svg>
